# xmcd
#
# Track frame offsets:
#	150
#	18064
#	37184
#	46166
#	57562
#	74732
#	90694
#	114602
#	131179
#	144383
#	161934
#	180153
#	192088
#	214150
#	224630
#	238665
#	251784
#	266464
#
# Disc length: 3739 seconds
#
# Revision: 1
# Processed by: cddbd v1.5.2PL0 Copyright (c) Steve Scherf et al.
# Submitted via: EasyCDDAExtractor 5.0.2.1
#
DISCID=180e9912
DTITLE=Various Artist - Jazz In The City 2 [CD 2)
DYEAR=2006
DGENRE=Jazz
TTITLE0=Michael Buble - Feeling good
TTITLE1=Lisa Ekdahl - Rivers of love
TTITLE2=John Pizzarelli - Unforgettable
TTITLE3=Westlife - Fly me to the moon
TTITLE4=Eva Cassidy - Cheek to cheek
TTITLE5=Renee Olstead - A love that will last (Album version)
TTITLE6=Annie Lennox - A whiter shade of pale
TTITLE7=Johnny Mathis - The rainbow connection
TTITLE8=Rick Astley - And i love you so
TTITLE9=Michael Bolton - When a man loves a woman
TTITLE10=K.D. Lang - After the gold rush
TTITLE11=Cyndi Lauper - My baby just cares for me (Album version)
TTITLE12=Jane Monheit - Do i love you?
TTITLE13=Bette Midler - Big spender
TTITLE14=Alison Moyet - The old devil called love (Album version)
TTITLE15=Julia Fordham - Lovin' you
TTITLE16=Martina McBride - True love ways
TTITLE17=Will Young - What's in goodbye
EXTD=YEAR: 2006
EXTT0=
EXTT1=
EXTT2=
EXTT3=
EXTT4=
EXTT5=
EXTT6=
EXTT7=
EXTT8=
EXTT9=
EXTT10=
EXTT11=
EXTT12=
EXTT13=
EXTT14=
EXTT15=
EXTT16=
EXTT17=
PLAYORDER=
